<svg height="480pt" viewBox="0 0 480.07028 480" width="480pt" xmlns="http://www.w3.org/2000/svg"><path d="m208.03125 152.035156c0 4.417969 3.582031 8 8 8h48c4.417969 0 8-3.582031 8-8v-80c0-4.417968-3.582031-8-8-8h-48c-4.417969 0-8 3.582032-8 8v48h-16v16h16zm16-72h32v24h-32zm0 40h32v24h-32zm0 0"/><path d="m312.03125 160.035156h48c4.417969 0 8-3.582031 8-8v-80c0-4.417968-3.582031-8-8-8h-48c-4.417969 0-8 3.582032-8 8v80c0 4.417969 3.582031 8 8 8zm8-80h32v24h-32zm0 40h32v24h-32zm0 0"/><path d="m128.03125 160.035156h40c4.417969 0 8-3.582031 8-8v-80c0-4.417968-3.582031-8-8-8h-48c-4.417969 0-8 3.582032-8 8v72h-8v16zm0-80h32v24h-32zm0 40h32v24h-32zm0 0"/><path d="m216.03125 304.035156h48c4.417969 0 8-3.582031 8-8v-80c0-4.417968-3.582031-8-8-8h-48c-4.417969 0-8 3.582032-8 8v80c0 4.417969 3.582031 8 8 8zm8-80h32v24h-32zm0 40h32v24h-32zm0 0"/><path d="m304.03125 256.035156v40c0 4.417969 3.582031 8 8 8h48c4.417969 0 8-3.582031 8-8v-80c0-4.417968-3.582031-8-8-8h-48c-4.417969 0-8 3.582032-8 8v8h-16v16h16zm16-32h32v24h-32zm0 40h32v24h-32zm0 0"/><path d="m120.03125 304.035156h48c4.417969 0 8-3.582031 8-8v-80c0-4.417968-3.582031-8-8-8h-48c-4.417969 0-8 3.582032-8 8v80c0 4.417969 3.582031 8 8 8zm8-80h32v24h-32zm0 40h32v24h-32zm0 0"/><path d="m208.03125 440.035156c0 4.417969 3.582031 8 8 8h48c4.417969 0 8-3.582031 8-8v-80c0-4.417968-3.582031-8-8-8h-48c-4.417969 0-8 3.582032-8 8v56h-16v16h16zm16-72h32v24h-32zm0 40h32v24h-32zm0 0"/><path d="m120.03125 448.035156h48c4.417969 0 8-3.582031 8-8v-80c0-4.417968-3.582031-8-8-8h-48c-4.417969 0-8 3.582032-8 8v80c0 4.417969 3.582031 8 8 8zm8-80h32v24h-32zm0 40h32v24h-32zm0 0"/><path d="m480.03125 312.035156c.003906-7.148437-1.933594-14.160156-5.601562-20.296875-1.398438-2.210937-1.429688-5.019531-.085938-7.261719 9.878906-16.394531 6.726562-37.496093-7.511719-50.285156-14.242187-12.792968-35.558593-13.667968-50.800781-2.09375v-40.0625h16v-16h-16v-128h16v-16h-16v-16h16v-15.9999998h-384v15.9999998h16v16h-16v16h16v128h-16v16h16v39.886719c-4.386719-3.289063-9.414062-5.621094-14.761719-6.839844-11.90625-2.808593-24.441406-.019531-34.039062 7.570313-9.59375 7.589844-15.1914065 19.148437-15.199219 31.382812-.0039062 7.140625 1.929688 14.152344 5.597656 20.28125 1.398438 2.28125 1.398438 5.148438 0 7.429688-7.496094 12.488281-7.496094 28.097656 0 40.585937 1.402344 2.207031 1.433594 5.015625.089844 7.253907-6.578125 10.917968-7.539062 24.324218-2.585938 36.070312 4.949219 11.746094 15.21875 20.414062 27.625 23.332031.417969.09375.800782.125 1.25.214844v8.832031h-23.976562c-2.511719 0-4.875 1.175782-6.386719 3.179688s-1.996093 4.597656-1.308593 7.011718l13.085937 45.808594h-13.390625v16h480v-16h-13.394531l13.089843-45.808594c.6875-2.414062.203126-5.007812-1.308593-7.011718s-3.878907-3.179688-6.386719-3.179688h-24v-8.910156c12.671875-2.519531 23.332031-11.039062 28.582031-22.84375 5.25-11.808594 4.4375-25.429688-2.183593-36.527344-1.394532-2.28125-1.394532-5.148437 0-7.429687 3.671874-6.132813 5.609374-13.144531 5.601562-20.289063zm-430.03125 152h-19.9375l-11.425781-40h42.785156zm14.03125-56h-16v-8.910156c5.804688-1.179688 11.269531-3.636719 16-7.203125zm0-144.207031c.042969 4.355469-1.136719 8.636719-3.402344 12.359375-4.402344 7.316406-4.382812 16.476562.058594 23.777344 4.464844 7.425781 4.464844 16.707031 0 24.132812-4.410156 7.351563-4.410156 16.53125 0 23.882813 2.183594 3.640625 3.339844 7.808593 3.34375 12.054687.128906 10.179688-6.34375 19.273438-16 22.488282v-118.488282h-16v118.648438c-7.546875-2.648438-13.273438-8.886719-15.265625-16.632813-1.601563-6.167969-.640625-12.71875 2.664063-18.167969 4.40625-7.316406 4.386718-16.476562-.054688-23.777343-4.464844-7.425781-4.464844-16.707031 0-24.132813 4.410156-7.351562 4.410156-16.53125 0-23.882812-2.183594-3.640625-3.339844-7.808594-3.34375-12.054688-.011719-7.308594 3.316406-14.222656 9.039062-18.769531 4.222657-3.402344 9.484376-5.25 14.90625-5.230469 1.9375 0 3.875.21875 5.765626.65625 8.613281 2.070313 15.371093 8.742188 17.550781 17.328125.460937 1.855469.707031 3.757813.738281 5.671875zm304 200.207031h-64v-16h64zm-48-32v-64h32v64zm80-64h-16v16h16v80h-16v-24c0-4.417968-3.582031-8-8-8h-8v-72c0-4.417968-3.582031-8-8-8h-48c-4.417969 0-8 3.582032-8 8v72h-8c-4.417969 0-8 3.582032-8 8v24h-208v-128h320zm0-48h-112v-16h-16v16h-192v-128h320zm0-176h-16v16h16v16h-320v-64h16v-16h-16v-48h320zm0-112h-320v-16h320zm16 360.113282c4.382812 3.289062 9.40625 5.621093 14.75 6.839843.417969.09375.800781.125 1.25.214844v8.832031h-16zm45.390625 31.886718-11.421875 40h-19.9375l-11.425781-40zm-.734375-124.070312c4.464844 7.425781 4.464844 16.707031 0 24.132812-4.410156 7.351563-4.410156 16.53125 0 23.882813 2.183594 3.640625 3.339844 7.808593 3.34375 12.054687.128906 10.179688-6.34375 19.273438-16 22.488282v-118.488282h-16v118.648438c-7.546875-2.648438-13.273438-8.886719-15.265625-16.632813-.457031-1.867187-.703125-3.78125-.734375-5.703125v-.074218c-.054688-4.367188 1.125-8.660157 3.398438-12.390626 4.40625-7.316406 4.386718-16.476562-.054688-23.777343-4.464844-7.425781-4.464844-16.707031 0-24.132813 4.410156-7.351562 4.410156-16.53125 0-23.882812-2.183594-3.640625-3.339844-7.808594-3.34375-12.054688-.011719-7.308594 3.316406-14.222656 9.039062-18.769531 4.222657-3.402344 9.484376-5.25 14.90625-5.230469 1.9375 0 3.875.21875 5.765626.65625 8.613281 2.070313 15.371093 8.742188 17.550781 17.328125 1.605469 6.167969.644531 12.722657-2.664063 18.167969-4.402344 7.316406-4.382812 16.476562.058594 23.777344zm0 0"/><path d="m280.03125 80.035156h16v16h-16zm0 0"/><path d="m88.03125 280.035156h16v16h-16zm0 0"/></svg>